<svg id="svg" xmlns="http://www.w3.org/2000/svg" xmlns:xlink="http://www.w3.org/1999/xlink" width="400" height="420.76502732240436" viewBox="0, 0, 400,420.76502732240436"><g id="svgg"><path id="path0" d="M246.995 0.707 C 246.995 1.392,242.274 2.122,235.246 2.525 C 223.323 3.209,219.518 4.038,211.214 7.760 C 208.666 8.902,206.181 9.836,205.692 9.836 C 204.593 9.836,195.220 16.590,194.718 17.742 C 194.517 18.203,193.756 18.579,193.027 18.579 C 191.357 18.579,183.607 26.434,183.607 28.126 C 183.607 28.818,182.705 30.027,181.602 30.812 C 180.500 31.598,178.712 34.577,177.629 37.432 C 176.546 40.287,175.273 42.623,174.802 42.623 C 174.330 42.623,173.620 44.098,173.224 45.902 C 172.828 47.705,172.051 49.180,171.498 49.180 C 170.945 49.180,170.492 52.594,170.492 56.766 C 170.492 60.938,170.000 64.656,169.399 65.027 C 168.684 65.469,168.306 97.643,168.306 157.988 L 168.306 250.273 181.967 250.273 L 195.628 250.273 195.628 267.213 L 195.628 284.153 181.967 284.153 L 168.306 284.153 168.306 292.423 C 168.306 299.777,168.094 300.634,166.393 300.155 C 165.342 299.858,160.792 299.026,156.284 298.306 C 151.776 297.585,147.842 296.658,147.541 296.245 C 147.240 295.832,143.675 294.609,139.617 293.527 C 135.560 292.446,132.240 291.198,132.240 290.755 C 132.240 290.312,129.744 289.143,126.692 288.158 C 123.641 287.172,119.886 285.376,118.348 284.167 C 116.810 282.957,114.999 281.967,114.323 281.967 C 113.647 281.967,112.480 280.984,111.729 279.781 C 110.978 278.579,109.739 277.596,108.975 277.596 C 108.211 277.596,106.877 276.612,106.011 275.410 C 105.144 274.208,103.929 273.222,103.311 273.221 C 101.480 273.215,81.967 252.569,81.967 250.637 C 81.967 250.250,80.781 248.378,79.331 246.477 C 75.957 242.054,67.760 225.197,67.760 222.682 C 67.760 221.628,67.361 220.765,66.873 220.765 C 66.386 220.765,65.339 218.183,64.547 215.027 C 63.754 211.872,62.698 208.771,62.198 208.137 C 57.112 201.686,57.127 130.949,62.216 124.044 C 62.659 123.443,63.687 120.000,64.501 116.393 C 65.315 112.787,66.560 108.852,67.269 107.650 C 67.978 106.448,69.180 103.128,69.940 100.273 C 70.700 97.418,71.642 95.082,72.033 95.082 C 72.423 95.082,73.697 92.623,74.863 89.617 C 76.030 86.612,77.367 84.153,77.836 84.153 C 78.305 84.153,78.689 83.489,78.689 82.678 C 78.689 81.866,80.164 79.166,81.967 76.676 C 83.770 74.187,85.246 71.661,85.246 71.062 C 85.246 70.464,87.838 66.894,91.006 63.129 C 94.175 59.365,97.856 54.874,99.188 53.151 C 100.519 51.428,103.809 48.304,106.498 46.208 L 111.388 42.398 105.421 35.013 C 102.139 30.951,99.454 27.277,99.454 26.849 C 99.454 26.203,90.306 14.559,82.033 4.674 C 79.959 2.197,73.224 3.698,73.224 6.637 C 73.224 7.194,72.476 7.650,71.561 7.650 C 69.508 7.650,39.344 37.504,39.344 39.537 C 39.344 40.344,38.361 41.619,37.158 42.369 C 35.956 43.120,34.973 44.226,34.973 44.827 C 34.973 45.429,33.497 47.957,31.694 50.447 C 29.891 52.936,28.415 55.596,28.415 56.357 C 28.415 57.118,28.000 57.905,27.492 58.106 C 26.006 58.692,15.830 78.804,14.163 84.451 C 13.324 87.292,12.324 89.617,11.941 89.617 C 11.558 89.617,10.378 93.675,9.319 98.634 C 8.260 103.593,6.997 108.147,6.513 108.754 C 5.356 110.204,2.186 131.671,2.186 138.054 C 2.186 140.796,1.694 143.344,1.093 143.716 C -0.380 144.626,-0.380 185.428,1.093 186.339 C 1.694 186.710,2.180 188.829,2.173 191.048 C 2.156 196.510,5.674 220.082,6.608 220.765 C 7.019 221.066,8.196 224.754,9.223 228.962 C 10.250 233.169,12.027 238.591,13.173 241.010 C 14.319 243.429,15.574 246.994,15.962 248.933 C 16.349 250.872,17.034 252.459,17.482 252.459 C 17.930 252.459,19.958 255.779,21.989 259.836 C 24.019 263.893,28.263 270.774,31.419 275.126 C 34.576 279.478,37.158 283.404,37.158 283.851 C 37.158 285.234,59.445 307.104,60.855 307.104 C 61.587 307.104,62.580 307.749,63.060 308.539 C 65.854 313.125,97.029 331.082,105.246 332.838 C 107.169 333.249,109.973 334.232,111.475 335.023 C 112.978 335.813,117.650 337.313,121.858 338.356 C 126.066 339.399,130.000 340.604,130.601 341.035 C 131.202 341.465,136.000 342.419,141.263 343.154 C 146.525 343.888,151.104 344.930,151.436 345.469 C 151.769 346.007,153.857 346.454,156.075 346.460 C 158.294 346.467,161.954 346.777,164.208 347.150 L 168.306 347.827 168.306 384.296 L 168.306 420.765 197.268 420.765 L 226.230 420.765 226.230 384.302 L 226.230 347.838 231.300 347.143 C 234.089 346.761,238.240 346.448,240.525 346.448 C 242.810 346.448,244.933 346.039,245.242 345.538 C 245.551 345.038,250.129 343.996,255.416 343.222 C 260.702 342.448,265.519 341.452,266.120 341.009 C 266.721 340.567,270.410 339.595,274.317 338.851 C 278.224 338.107,283.388 336.629,285.792 335.568 C 288.197 334.506,292.500 332.970,295.355 332.154 C 298.210 331.338,300.546 330.286,300.546 329.816 C 300.546 329.346,301.067 328.962,301.704 328.962 C 303.577 328.962,321.474 319.976,326.230 316.649 C 328.634 314.966,331.831 312.757,333.333 311.739 C 334.836 310.721,336.459 309.262,336.940 308.496 C 337.420 307.730,338.455 307.104,339.239 307.104 C 341.151 307.104,365.027 283.299,365.027 281.392 C 365.027 280.566,365.642 279.497,366.393 279.016 C 368.219 277.848,375.956 266.288,375.956 264.728 C 375.956 264.051,376.571 263.103,377.322 262.623 C 378.991 261.555,385.792 247.827,385.792 245.527 C 385.792 244.617,386.430 243.222,387.210 242.428 C 387.989 241.633,389.546 237.541,390.669 233.333 C 391.792 229.126,393.105 224.945,393.588 224.044 C 394.766 221.839,397.814 202.834,397.814 197.686 C 397.814 195.423,398.306 193.268,398.907 192.896 C 399.578 192.482,400.000 183.595,400.000 169.881 C 400.000 155.716,399.600 147.541,398.907 147.541 C 398.306 147.541,397.813 145.943,397.811 143.989 C 397.806 139.324,394.605 121.102,393.541 119.685 C 393.084 119.077,391.805 115.140,390.698 110.938 C 389.591 106.735,387.836 101.817,386.798 100.009 C 385.760 98.201,384.579 95.123,384.172 93.169 C 383.766 91.216,383.055 89.617,382.593 89.617 C 382.130 89.617,380.938 87.773,379.943 85.519 C 377.374 79.699,375.111 76.007,368.579 66.973 C 365.423 62.608,362.842 58.741,362.842 58.379 C 362.842 56.326,345.665 39.377,337.158 33.036 C 324.354 23.491,316.922 18.767,309.290 15.321 C 306.585 14.100,303.142 12.423,301.639 11.595 C 300.137 10.766,297.186 9.734,295.082 9.301 C 292.978 8.867,289.781 7.841,287.978 7.020 C 283.170 4.831,266.468 2.186,257.452 2.186 C 252.816 2.186,249.082 1.650,248.306 0.874 C 247.499 0.067,246.995 0.003,246.995 0.707 M272.967 65.386 C 281.325 71.348,280.874 65.164,280.874 173.991 C 280.874 276.379,281.023 273.240,275.956 277.841 C 269.779 283.451,268.957 283.585,238.525 283.960 L 209.836 284.314 209.836 173.240 L 209.836 62.167 239.617 62.504 C 268.785 62.835,269.472 62.894,272.967 65.386 M360.109 72.678 L 360.109 82.514 343.989 82.816 L 327.869 83.119 327.869 118.608 L 327.869 154.098 343.169 154.098 L 358.470 154.098 358.470 164.481 L 358.470 174.863 343.169 174.863 L 327.869 174.863 327.869 219.096 L 327.869 263.330 343.989 263.632 L 360.109 263.934 360.109 273.770 L 360.109 283.607 330.055 283.607 L 300.000 283.607 299.722 172.934 L 299.443 62.260 329.776 62.551 L 360.109 62.842 360.109 72.678 M238.251 173.224 L 238.251 263.388 242.623 263.388 C 252.055 263.388,251.366 270.472,251.366 173.467 C 251.366 76.793,251.939 83.060,243.107 83.060 L 238.251 83.060 238.251 173.224 " stroke="none" fill="#ffffff" fill-rule="evenodd"></path></g></svg>