<?xml version="1.0" standalone="no"?>
<!DOCTYPE svg PUBLIC "-//W3C//DTD SVG 20010904//EN"
 "http://www.w3.org/TR/2001/REC-SVG-20010904/DTD/svg10.dtd">
<svg version="1.0" xmlns="http://www.w3.org/2000/svg"
 width="417.000000pt" height="417.000000pt" viewBox="0 0 417.000000 417.000000"
 preserveAspectRatio="xMidYMid meet">

<g transform="translate(0.000000,417.000000) scale(0.100000,-0.100000)"
fill="#000000" stroke="none">
<path d="M0 2085 l0 -2085 2085 0 2085 0 0 2085 0 2085 -2085 0 -2085 0 0
-2085z m2626 1895 c82 0 235 -24 279 -44 17 -8 46 -17 65 -21 19 -4 46 -14 60
-21 14 -8 45 -23 70 -34 70 -32 138 -75 255 -162 78 -58 235 -213 235 -232 0
-3 24 -39 53 -79 59 -82 80 -116 103 -169 10 -21 20 -38 25 -38 4 0 10 -15 14
-32 4 -18 15 -47 24 -63 10 -17 26 -62 36 -100 10 -39 22 -75 26 -80 10 -13
39 -180 39 -222 0 -18 5 -33 10 -33 6 0 10 -75 10 -204 0 -126 -4 -207 -10
-211 -6 -3 -10 -23 -10 -44 0 -47 -28 -221 -39 -241 -4 -8 -16 -46 -26 -85
-11 -38 -25 -76 -32 -83 -7 -7 -13 -20 -13 -29 0 -21 -62 -146 -77 -156 -7 -4
-13 -13 -13 -19 0 -15 -71 -120 -87 -131 -7 -4 -13 -14 -13 -22 0 -17 -218
-235 -236 -235 -7 0 -17 -6 -21 -13 -4 -7 -19 -20 -33 -29 -14 -10 -43 -30
-65 -45 -44 -31 -207 -113 -224 -113 -6 0 -11 -4 -11 -8 0 -4 -21 -14 -47 -21
-27 -8 -66 -22 -88 -31 -22 -10 -69 -24 -105 -30 -36 -7 -69 -16 -75 -20 -5
-4 -50 -13 -98 -20 -48 -8 -90 -17 -93 -22 -3 -4 -22 -8 -43 -8 -21 0 -59 -3
-85 -6 l-46 -7 0 -333 0 -334 -265 0 -265 0 0 334 0 333 -37 7 c-21 3 -55 6
-75 6 -20 0 -39 4 -42 9 -3 5 -45 14 -93 21 -49 7 -92 16 -98 20 -5 3 -41 15
-80 24 -38 10 -81 23 -95 31 -14 7 -39 16 -57 20 -75 16 -360 180 -386 222 -4
7 -13 13 -20 13 -13 0 -217 200 -217 213 0 4 -24 40 -53 80 -28 39 -67 102
-86 140 -18 37 -37 67 -41 67 -4 0 -10 15 -14 32 -4 18 -15 51 -25 73 -11 22
-27 72 -37 110 -9 39 -20 72 -24 75 -8 6 -40 222 -40 272 0 20 -4 40 -10 43
-13 8 -13 382 0 390 6 3 10 27 10 52 0 58 29 255 40 268 4 5 16 47 25 93 10
45 21 82 24 82 4 0 13 21 21 47 15 52 108 236 122 241 4 2 8 9 8 16 0 7 14 32
30 54 17 23 30 46 30 52 0 5 9 15 20 22 11 7 20 19 20 26 0 19 276 292 295
292 8 0 15 4 15 9 0 5 14 16 31 25 36 18 19 31 139 -116 38 -48 70 -90 70 -94
0 -4 25 -37 55 -74 l54 -68 -45 -35 c-24 -19 -54 -48 -66 -63 -13 -16 -46 -57
-75 -92 -29 -34 -53 -67 -53 -72 0 -6 -13 -29 -30 -52 -16 -22 -30 -47 -30
-55 0 -7 -4 -13 -8 -13 -4 0 -16 -22 -27 -50 -11 -27 -22 -50 -26 -50 -3 0
-12 -21 -19 -47 -7 -27 -18 -57 -24 -68 -7 -11 -18 -45 -25 -75 -7 -30 -17
-64 -22 -75 -5 -11 -15 -69 -22 -128 -11 -80 -19 -111 -32 -120 -22 -17 -23
-86 -1 -103 12 -9 16 -29 16 -92 0 -91 26 -310 39 -326 5 -6 14 -35 22 -63 7
-29 16 -53 21 -53 4 0 8 -8 8 -18 0 -23 75 -177 106 -217 13 -18 24 -35 24
-38 0 -18 179 -207 195 -207 6 0 17 -9 25 -20 8 -11 20 -20 27 -20 7 0 18 -9
25 -20 7 -11 18 -20 24 -20 7 0 15 -41 20 -112 9 -111 9 -113 36 -122 18 -6
38 -6 55 0 26 9 28 14 35 82 3 41 9 76 12 79 3 4 6 2 6 -4 0 -6 30 -19 68 -29
37 -10 69 -21 72 -25 3 -3 39 -12 80 -18 41 -7 83 -15 93 -17 16 -5 17 27 17
575 l0 581 109 55 c114 57 122 66 112 123 -3 18 -28 35 -112 78 l-109 54 0
339 c0 216 4 342 10 346 6 3 10 37 10 76 0 38 4 69 9 69 5 0 12 14 16 30 4 17
10 30 14 30 5 0 16 21 26 48 10 26 27 53 37 60 10 7 18 18 18 25 0 15 71 87
86 87 7 0 14 3 16 8 4 10 90 72 100 72 5 0 27 9 51 19 76 34 110 42 220 48 64
4 107 10 107 17 0 6 5 5 12 -2 7 -7 41 -12 84 -12z m-1172 -624 l49 -543 242
-124 242 -124 -242 -124 -242 -124 -49 -544 c-26 -299 -51 -543 -54 -543 -3 0
-28 245 -54 544 l-49 543 -242 124 -242 124 242 123 241 124 49 544 c27 299
52 544 55 544 3 0 28 -245 54 -544z"/>
<path d="M2270 2410 l0 -900 205 0 c226 0 286 9 330 47 l30 26 0 821 0 821
-25 29 c-45 52 -69 56 -315 56 l-225 0 0 -900z m320 720 c20 -20 20 -33 20
-720 0 -687 0 -700 -20 -720 -13 -13 -33 -20 -60 -20 l-40 0 0 740 0 740 40 0
c27 0 47 -7 60 -20z"/>
<path d="M3000 2410 l0 -900 245 0 245 0 0 80 0 80 -130 0 -130 0 0 365 0 365
125 0 125 0 0 80 0 80 -125 0 -125 0 0 295 0 295 130 0 130 0 0 80 0 80 -245
0 -245 0 0 -900z"/>
<path d="M1920 1645 l0 -135 115 0 115 0 0 135 0 135 -115 0 -115 0 0 -135z"/>
</g>
</svg>
